<svg width="15" height="22" viewBox="0 0 15 22" fill="none" xmlns="http://www.w3.org/2000/svg">
<path d="M9.58301 0C8.20167 0 6.87691 0.526784 5.90016 1.46447C4.92341 2.40215 4.37467 3.67392 4.37467 5V15C4.37467 16.657 5.77363 18 7.49967 18C9.22572 18 10.6143 16.657 10.6143 15V5H8.54134V15C8.54134 15.2652 8.43159 15.5196 8.23624 15.7071C8.04089 15.8946 7.77594 16 7.49967 16C7.22341 16 6.95846 15.8946 6.76311 15.7071C6.56776 15.5196 6.45801 15.2652 6.45801 15V5C6.45801 4.60603 6.53884 4.21593 6.69588 3.85195C6.85293 3.48797 7.08312 3.15726 7.3733 2.87868C7.66348 2.6001 8.00798 2.37913 8.38712 2.22836C8.76626 2.0776 9.17263 2 9.58301 2C9.99339 2 10.3998 2.0776 10.7789 2.22836C11.158 2.37913 11.5025 2.6001 11.7927 2.87868C12.0829 3.15726 12.3131 3.48797 12.4701 3.85195C12.6272 4.21593 12.708 4.60603 12.708 5V15.125C12.708 17.887 10.3768 20 7.49967 20C4.62259 20 2.29134 17.762 2.29134 15V10H0.208008V15C0.208008 18.866 3.47259 22 7.49967 22C11.5268 22 14.7809 18.866 14.7809 15V5C14.7809 2.238 12.4601 0 9.58301 0Z" fill="black"/>
</svg>
